<svg width="200" height="261" viewBox="0 0 200 261" fill="none" xmlns="http://www.w3.org/2000/svg">
<mask id="path-1-inside-1_2010_79" fill="white">
<path d="M200 253C200 257.418 196.418 261 192 261H8C3.58173 261 0 257.418 0 253V8C0 3.58172 3.58172 0 8 0H192C196.418 0 200 3.58172 200 8V253ZM80.8574 5C79.7529 5 78.8574 5.89543 78.8574 7V10C78.8574 11.1046 79.7529 12 80.8574 12H119.143C120.247 12 121.143 11.1046 121.143 10V7C121.143 5.89543 120.247 5 119.143 5H80.8574Z"/>
</mask>
<g filter="url(#filter0_i_2010_79)">
<path d="M200 253C200 257.418 196.418 261 192 261H8C3.58173 261 0 257.418 0 253V8C0 3.58172 3.58172 0 8 0H192C196.418 0 200 3.58172 200 8V253ZM80.8574 5C79.7529 5 78.8574 5.89543 78.8574 7V10C78.8574 11.1046 79.7529 12 80.8574 12H119.143C120.247 12 121.143 11.1046 121.143 10V7C121.143 5.89543 120.247 5 119.143 5H80.8574Z" fill="#DADADA"/>
</g>
<path d="M78.8574 10L77.8574 10V10L78.8574 10ZM121.143 7L122.143 7V7L121.143 7ZM192 261V260H8V261V262H192V261ZM0 253H1V8H0H-1V253H0ZM8 0V1H192V0V-1H8V0ZM200 8H199V253H200H201V8H200ZM80.8574 5V4C79.2006 4 77.8574 5.34315 77.8574 7H78.8574H79.8574C79.8574 6.44772 80.3051 6 80.8574 6V5ZM78.8574 7H77.8574V10H78.8574H79.8574V7H78.8574ZM78.8574 10L77.8574 10C77.8574 11.6569 79.2006 13 80.8574 13V12V11C80.3051 11 79.8574 10.5523 79.8574 10L78.8574 10ZM80.8574 12V13H119.143V12V11H80.8574V12ZM119.143 12V13C120.799 13 122.143 11.6569 122.143 10H121.143H120.143C120.143 10.5523 119.695 11 119.143 11V12ZM121.143 10H122.143V7H121.143H120.143V10H121.143ZM121.143 7L122.143 7C122.143 5.34315 120.799 4 119.143 4V5V6C119.695 6 120.143 6.44772 120.143 7L121.143 7ZM119.143 5V4H80.8574V5V6H119.143V5ZM192 0V1C195.866 1 199 4.13401 199 8H200H201C201 3.02944 196.971 -1 192 -1V0ZM0 8H1C1 4.134 4.13401 1 8 1V0V-1C3.02944 -1 -1 3.02943 -1 8H0ZM8 261V260C4.13401 260 1 256.866 1 253H0H-1C-1 257.971 3.02944 262 8 262V261ZM192 261V262C196.971 262 201 257.971 201 253H200H199C199 256.866 195.866 260 192 260V261Z" fill="white" mask="url(#path-1-inside-1_2010_79)"/>
<defs>
<filter id="filter0_i_2010_79" x="0" y="0" width="200" height="262" filterUnits="userSpaceOnUse" color-interpolation-filters="sRGB">
<feFlood flood-opacity="0" result="BackgroundImageFix"/>
<feBlend mode="normal" in="SourceGraphic" in2="BackgroundImageFix" result="shape"/>
<feColorMatrix in="SourceAlpha" type="matrix" values="0 0 0 0 0 0 0 0 0 0 0 0 0 0 0 0 0 0 127 0" result="hardAlpha"/>
<feOffset dy="1"/>
<feGaussianBlur stdDeviation="2"/>
<feComposite in2="hardAlpha" operator="arithmetic" k2="-1" k3="1"/>
<feColorMatrix type="matrix" values="0 0 0 0 0 0 0 0 0 0 0 0 0 0 0 0 0 0 0.35 0"/>
<feBlend mode="normal" in2="shape" result="effect1_innerShadow_2010_79"/>
</filter>
</defs>
</svg>
