<svg width="125" height="211" viewBox="0 0 125 211" fill="none" xmlns="http://www.w3.org/2000/svg">
<g clip-path="url(#clip0_2005_63)">
<path d="M124.5 -1.5H88.5L64.5 63.5L85.5 115.5L124.5 -1.5Z" fill="#777777"/>
<path d="M90 211H42V139H90V211ZM66 181C62.6863 181 60 183.686 60 187C60 190.314 62.6863 193 66 193C69.3137 193 72 190.314 72 187C72 183.686 69.3137 181 66 181Z" fill="url(#paint0_linear_2005_63)"/>
<circle cx="66" cy="187" r="5.5" stroke="white"/>
<path d="M46 114H86V163C86 167.418 82.4183 171 78 171H54C49.5817 171 46 167.418 46 163V114Z" fill="#828282"/>
<circle cx="66" cy="157" r="8" fill="url(#paint1_radial_2005_63)"/>
<line x1="46" y1="124" x2="86" y2="124" stroke="#737373" stroke-width="2"/>
<line x1="46" y1="120.5" x2="86" y2="120.5" stroke="#696969"/>
<g filter="url(#filter0_d_2005_63)">
<path d="M45.9931 114L0 -2H40.7534L85 114H45.9931Z" fill="#9E9E9E"/>
</g>
</g>
<defs>
<filter id="filter0_d_2005_63" x="-13" y="-19" width="113" height="144" filterUnits="userSpaceOnUse" color-interpolation-filters="sRGB">
<feFlood flood-opacity="0" result="BackgroundImageFix"/>
<feColorMatrix in="SourceAlpha" type="matrix" values="0 0 0 0 0 0 0 0 0 0 0 0 0 0 0 0 0 0 127 0" result="hardAlpha"/>
<feOffset dx="1" dy="-3"/>
<feGaussianBlur stdDeviation="7"/>
<feComposite in2="hardAlpha" operator="out"/>
<feColorMatrix type="matrix" values="0 0 0 0 0 0 0 0 0 0 0 0 0 0 0 0 0 0 0.25 0"/>
<feBlend mode="normal" in2="BackgroundImageFix" result="effect1_dropShadow_2005_63"/>
<feBlend mode="normal" in="SourceGraphic" in2="effect1_dropShadow_2005_63" result="shape"/>
</filter>
<linearGradient id="paint0_linear_2005_63" x1="65.5" y1="139" x2="65.5" y2="210" gradientUnits="userSpaceOnUse">
<stop stop-color="#555555"/>
<stop offset="1" stop-color="#434142"/>
</linearGradient>
<radialGradient id="paint1_radial_2005_63" cx="0" cy="0" r="1" gradientUnits="userSpaceOnUse" gradientTransform="translate(62.5 151.5) rotate(58.3925) scale(7.63217)">
<stop stop-color="#686868"/>
<stop offset="1" stop-color="#535353"/>
</radialGradient>
<clipPath id="clip0_2005_63">
<rect width="125" height="211" fill="white"/>
</clipPath>
</defs>
</svg>
