<svg width="66" height="345" viewBox="0 0 66 345" fill="none" xmlns="http://www.w3.org/2000/svg">
<path d="M55 302C56.6569 302 58 303.343 58 305V318C58 319.657 56.6569 321 55 321H10C8.34315 321 7 319.657 7 318V305C7 303.343 8.34315 302 10 302H55ZM11 314C10.4477 314 10 314.448 10 315V317C10 317.552 10.4477 318 11 318H54C54.5523 318 55 317.552 55 317V315C55 314.448 54.5523 314 54 314H11Z" fill="#9E9E9E"/>
<rect x="27" y="316" width="11" height="29" rx="1" fill="#2E2E2E"/>
<g filter="url(#filter0_d_2016_142)">
<rect x="13" y="14" width="39" height="300" fill="url(#paint0_linear_2016_142)"/>
</g>
<rect x="13" y="291" width="39" height="23" fill="url(#paint1_linear_2016_142)"/>
<defs>
<filter id="filter0_d_2016_142" x="3" y="0" width="63" height="324" filterUnits="userSpaceOnUse" color-interpolation-filters="sRGB">
<feFlood flood-opacity="0" result="BackgroundImageFix"/>
<feColorMatrix in="SourceAlpha" type="matrix" values="0 0 0 0 0 0 0 0 0 0 0 0 0 0 0 0 0 0 127 0" result="hardAlpha"/>
<feOffset dx="2" dy="-2"/>
<feGaussianBlur stdDeviation="6"/>
<feComposite in2="hardAlpha" operator="out"/>
<feColorMatrix type="matrix" values="0 0 0 0 0 0 0 0 0 0 0 0 0 0 0 0 0 0 0.25 0"/>
<feBlend mode="normal" in2="BackgroundImageFix" result="effect1_dropShadow_2016_142"/>
<feBlend mode="normal" in="SourceGraphic" in2="effect1_dropShadow_2016_142" result="shape"/>
</filter>
<linearGradient id="paint0_linear_2016_142" x1="32.5" y1="14" x2="32.5" y2="314" gradientUnits="userSpaceOnUse">
<stop stop-color="#666666"/>
<stop offset="1" stop-color="#2E2E2E"/>
</linearGradient>
<linearGradient id="paint1_linear_2016_142" x1="32.5" y1="291" x2="32.5" y2="314" gradientUnits="userSpaceOnUse">
<stop stop-color="#4C4B4B"/>
<stop offset="0.5" stop-color="#333333"/>
<stop offset="1" stop-color="#2E2E2E"/>
</linearGradient>
</defs>
</svg>
